<svg height="384pt" viewBox="0 0 384 384" width="384pt" xmlns="http://www.w3.org/2000/svg"><path d="m239.832031 128c0-8.824219 7.175781-16 16-16s16 7.175781 16 16v16h32v-16c0-26.472656-21.527343-48-48-48-26.472656 0-48 21.527344-48 48v16h32zm0 0"/><path d="m111.832031 128c0-8.824219 7.175781-16 16-16s16 7.175781 16 16v16h32v-16c0-26.472656-21.527343-48-48-48-26.472656 0-48 21.527344-48 48v16h32zm0 0"/><path d="m33.617188 300.863281 9.597656 12.808594c.015625.023437.042968.039063.058594.0625l5.804687 6.691406c36.488281 40.496094 88 63.574219 142.753906 63.574219 54.753907 0 106.265625-23.078125 142.742188-63.574219l5.808593-6.691406c.015626-.023437.042969-.039063.058594-.0625l9.597656-12.808594c20.402344-29.664062 31.960938-64.808593 33.449219-101.03125l.183594-15.648437-.609375-9.335938c-8.664062-98.75-90.984375-174.847656-191.230469-174.847656-100.246093 0-182.566406 76.097656-191.230469 174.847656l-.601562 9.128906v.039063l.175781 15.816406c1.480469 36.222657 13.039063 71.359375 33.441407 101.03125zm158.214843 51.136719c-39.96875 0-77.863281-14.785156-107.097656-41.128906 18.328125-9.605469 32.464844-26.078125 38.992187-45.742188 19.511719 14.757813 43.371094 22.871094 68.105469 22.871094 24.710938 0 48.582031-8.128906 68.144531-22.921875 6.574219 19.753906 20.6875 36.203125 38.960938 45.792969-29.234375 26.34375-67.128906 41.128906-107.105469 41.128906zm129.703125-66.191406c-18.09375-5.6875-31.648437-21.945313-33.503906-41.65625-.160156-1.359375-.199219-2.726563-.199219-4.152344 0-26.472656 21.527344-48 48-48 5.449219 0 10.847657.9375 15.976563 2.742188-.5625 32.800781-11.199219 64.707031-30.273438 91.066406zm-129.703125-253.808594c77.832031 0 142.535157 55.105469 156.871094 129.175781-4.253906-.695312-8.542969-1.175781-12.871094-1.175781-39.121093 0-71.710937 28.246094-78.601562 65.40625l-11.949219 10.496094c-14.769531 12.953125-33.753906 20.097656-53.449219 20.097656-19.710937 0-38.65625-7.113281-53.367187-20.023438l-12.023438-10.550781v.007813c-6.882812-37.175782-39.480468-65.433594-78.609375-65.433594-4.328125 0-8.617187.480469-12.871093 1.175781 14.335937-74.070312 79.039062-129.175781 156.871093-129.175781zm-144 160c26.472657 0 48 21.527344 48 48 0 1.425781-.039062 2.792969-.246093 4.59375-1.808594 19.335938-15.363282 35.535156-33.457032 41.214844-19.074218-26.359375-29.714844-58.265625-30.273437-91.066406 5.128906-1.804688 10.527343-2.742188 15.976562-2.742188zm0 0"/></svg>