<svg height="384pt" viewBox="0 0 384 384" width="384pt" xmlns="http://www.w3.org/2000/svg"><path d="m240 256c0 8.824219-7.175781 16-16 16s-16-7.175781-16-16h-32c0 8.824219-7.175781 16-16 16s-16-7.175781-16-16v-16h-32v16c0 26.472656 21.527344 48 48 48 12.28125 0 23.496094-4.640625 32-12.257812 8.496094 7.617187 19.71875 12.257812 32 12.257812 26.472656 0 48-21.527344 48-48v-16h-32zm0 0"/><path d="m256 128c-26.472656 0-48 21.527344-48 48v16h32v-16c0-8.824219 7.175781-16 16-16s16 7.175781 16 16v16h32v-16c0-26.472656-21.527344-48-48-48zm0 0"/><path d="m112 176c0-8.824219 7.175781-16 16-16s16 7.175781 16 16v16h32v-16c0-26.472656-21.527344-48-48-48s-48 21.527344-48 48v16h32zm0 0"/><path d="m192 0c-105.871094 0-192 86.128906-192 192s86.128906 192 192 192 192-86.128906 192-192-86.128906-192-192-192zm0 352c-88.222656 0-160-71.777344-160-160s71.777344-160 160-160 160 71.777344 160 160-71.777344 160-160 160zm0 0"/></svg>