<svg height="384pt" viewBox="0 0 384 384" width="384pt" xmlns="http://www.w3.org/2000/svg"><path d="m99.558594 105.816406-17.742188 26.625 41.34375 27.558594-41.34375 27.558594 17.742188 26.625 81.28125-54.183594zm0 0"/><path d="m284.441406 105.816406-81.28125 54.183594 81.28125 54.183594 17.742188-26.625-41.34375-27.558594 41.34375-27.558594zm0 0"/><path d="m245.449219 235.976562c-14.769531 12.960938-33.746094 20.101563-53.449219 20.101563-19.710938 0-38.65625-7.109375-53.367188-20.023437l-12.023437-10.550782-21.113281 24.039063 12.023437 10.5625c20.542969 18.039062 46.992188 27.972656 74.480469 27.972656 27.480469 0 53.953125-9.964844 74.550781-28.054687l12.023438-10.558594-21.109375-24.039063zm0 0"/><path d="m192 0c-105.863281 0-192 86.128906-192 192s86.136719 192 192 192 192-86.128906 192-192-86.136719-192-192-192zm0 352c-88.222656 0-160-71.777344-160-160s71.777344-160 160-160 160 71.777344 160 160-71.777344 160-160 160zm0 0"/></svg>