<svg height="384pt" viewBox="0 0 384 384" width="384pt" xmlns="http://www.w3.org/2000/svg"><path d="m192 304c44.113281 0 80-35.886719 80-80v-16h-32v16c0 26.472656-21.527344 48-48 48s-48-21.527344-48-48v-16h-32v16c0 44.113281 35.886719 80 80 80zm0 0"/><path d="m192 384c105.863281 0 192-86.128906 192-192s-86.136719-192-192-192-192 86.128906-192 192 86.136719 192 192 192zm0-352c88.222656 0 160 71.777344 160 160s-71.777344 160-160 160-160-71.777344-160-160 71.777344-160 160-160zm0 0"/><path d="m112 144h32v32h-32zm0 0"/><path d="m240 144h32v32h-32zm0 0"/></svg>