<svg height="384pt" viewBox="0 0 384 384" width="384pt" xmlns="http://www.w3.org/2000/svg"><path d="m383.832031 183.816406c-4.320312-103.082031-88.574219-183.816406-191.832031-183.816406s-187.511719 80.734375-191.832031 183.976562c-.089844 2.648438-.167969 5.296876-.167969 8.023438 0 5.089844.257812 10.160156.664062 15.207031l1.160157 11.082031c.007812.03125.007812.070313.007812.101563l2.902344 15.753906c6.488281 29.175781 19.640625 56.421875 38.648437 79.519531 4.546876 5.535157 9.488282 10.742188 14.640626 15.75l11.863281 10.753907c.007812.007812.015625.007812.023437.015625.011719.007812.019532.015625.027344.023437l4.628906 3.800781 4.355469 2.984376c32.652344 23.847656 72.324219 37.007812 113.078125 37.007812s80.425781-13.160156 113.089844-37.007812l8.980468-6.777344c.007813-.007813.019532-.015625.027344-.023438.007813-.007812.015625-.007812.023438-.015625l11.863281-10.75c5.144531-5 10.085937-10.210937 14.617187-15.730469 19.023438-23.109374 32.175782-50.367187 38.671876-79.542968l2.902343-15.753906c.007813-.03125.007813-.070313.007813-.101563l1.160156-11.082031c.398438-5.054688.65625-10.125.65625-15.214844 0-2.664062-.078125-5.160156-.167969-8.183594zm-302.808593 123.488282c-4.574219-4.394532-8.894532-9.058594-12.910157-13.953126-16.058593-19.503906-27.152343-42.550781-32.464843-67.246093 4.007812-1.074219 8.167968-1.625 12.351562-1.625 24.726562 0 45.265625 18.511719 47.769531 43.0625l.015625.167969c.167969 1.570312.214844 3.136718.214844 4.769531 0 13.304687-5.550781 25.878906-14.976562 34.824219zm110.976562 44.695312c-30.472656 0-60.199219-8.855469-85.648438-25 10.34375-11.097656 17.34375-24.960938 20.144532-39.992188l.113281.128907 12.023437-10.550781c14.765626-12.960938 33.75-20.105469 53.445313-20.105469 19.714844 0 38.65625 7.113281 53.371094 20.023437l12.023437 10.550782.039063-.039063c2.800781 15.023437 9.800781 28.886719 20.144531 39.984375-25.457031 16.144531-55.183594 25-85.65625 25zm123.863281-58.625c-4 4.882812-8.3125 9.546875-12.886719 13.929688-9.425781-8.945313-14.976562-21.519532-14.976562-34.824219 0-1.632813.046875-3.199219.230469-4.9375 2.503906-24.550781 23.042969-43.0625 47.769531-43.0625 4.183594 0 8.34375.550781 12.351562 1.625-5.3125 24.695312-16.414062 47.742187-32.488281 67.269531zm36.058594-99.144531c-5.234375-1.0625-10.554687-1.75-15.921875-1.75-35.289062 0-65.382812 22.671875-75.929688 54.785156-19.484374-14.707031-43.300781-22.785156-67.992187-22.785156-24.703125 0-48.566406 8.121093-68.125 22.902343-10.554687-32.222656-40.65625-54.902343-75.953125-54.902343-5.375 0-10.6875.6875-15.921875 1.75-.015625-.742188-.078125-1.488281-.078125-2.230469 0-2.382812.078125-4.703125.144531-6.847656 3.589844-85.878906 73.808594-153.152344 159.855469-153.152344s156.265625 67.273438 159.855469 153.28125c.074219 2.230469.144531 4.40625.144531 6.71875 0 .742188-.0625 1.488281-.078125 2.230469zm0 0"/><path d="m112 144h32v32h-32zm0 0"/><path d="m240 144h32v32h-32zm0 0"/></svg>