<svg height="384pt" viewBox="0 0 384 384" width="384pt" xmlns="http://www.w3.org/2000/svg"><path d="m192 0c-105.863281 0-192 86.128906-192 192s86.136719 192 192 192 192-86.128906 192-192-86.136719-192-192-192zm0 352c-88.222656 0-160-71.777344-160-160s71.777344-160 160-160 160 71.777344 160 160-71.777344 160-160 160zm0 0"/><path d="m112 144h32v32h-32zm0 0"/><path d="m240 144h32v32h-32zm0 0"/><path d="m214.640625 210.726562-22.640625 22.648438-22.640625-22.648438-22.625 22.632813 22.640625 22.640625-22.640625 22.640625 22.625 22.632813 22.640625-22.648438 22.640625 22.648438 22.625-22.632813-22.640625-22.640625 22.640625-22.640625zm0 0"/></svg>