<svg height="384pt" viewBox="0 0 384 384" width="384pt" xmlns="http://www.w3.org/2000/svg"><path d="m99.558594 105.816406-17.742188 26.625 41.34375 27.558594-41.34375 27.558594 17.742188 26.625 81.28125-54.183594zm0 0"/><path d="m284.441406 105.816406-81.28125 54.183594 81.28125 54.183594 17.742188-26.625-41.34375-27.558594 41.34375-27.558594zm0 0"/><path d="m192.078125 223.921875c-27.46875 0-53.941406 9.964844-74.550781 28.054687l-12.023438 10.550782 21.113282 24.046875 12.023437-10.550781c14.765625-12.960938 33.75-20.101563 53.449219-20.101563 19.703125 0 38.664062 7.109375 53.359375 20.023437l12.023437 10.550782 21.113282-24.039063-12.019532-10.5625c-20.558594-18.039062-47.007812-27.972656-74.488281-27.972656zm0 0"/><path d="m192 0c-105.871094 0-192 86.128906-192 192s86.128906 192 192 192 192-86.128906 192-192-86.128906-192-192-192zm0 352c-88.222656 0-160-71.777344-160-160s71.777344-160 160-160 160 71.777344 160 160-71.777344 160-160 160zm0 0"/></svg>