<svg height="384pt" viewBox="0 0 384 384" width="384pt" xmlns="http://www.w3.org/2000/svg"><path d="m202.53125 103.167969 14.308594-28.621094 60.621094 30.3125-14.3125 28.621094zm0 0"/><path d="m106.546875 104.84375 60.625-30.308594 14.3125 28.621094-60.625 30.3125zm0 0"/><path d="m272 160c0 8.824219-7.175781 16-16 16s-16-7.175781-16-16v-16h-32v16c0 26.472656 21.527344 48 48 48s48-21.527344 48-48v-16h-32zm0 0"/><path d="m176 160v-16h-32v16c0 8.824219-7.175781 16-16 16s-16-7.175781-16-16v-16h-32v16c0 26.472656 21.527344 48 48 48s48-21.527344 48-48zm0 0"/><path d="m245.449219 235.894531c-14.777344 12.960938-33.753907 20.105469-53.449219 20.105469-19.703125 0-38.65625-7.113281-53.367188-20.023438l-12.023437-10.550781-21.113281 24.046875 12.023437 10.550782c20.550781 18.039062 47 27.976562 74.480469 27.976562 27.472656 0 53.945312-9.96875 74.550781-28.054688l12.023438-10.554687-21.109375-24.046875zm0 0"/><path d="m192 0c-105.871094 0-192 86.128906-192 192s86.128906 192 192 192 192-86.128906 192-192-86.128906-192-192-192zm0 352c-88.222656 0-160-71.777344-160-160s71.777344-160 160-160 160 71.777344 160 160-71.777344 160-160 160zm0 0"/></svg>