<svg height="384pt" viewBox="0 0 384 384" width="384pt" xmlns="http://www.w3.org/2000/svg"><path d="m272 144c0 8.824219-7.175781 16-16 16s-16-7.175781-16-16v-16h-32v16c0 26.472656 21.527344 48 48 48s48-21.527344 48-48v-16h-32zm0 0"/><path d="m176 144v-16h-32v16c0 8.824219-7.175781 16-16 16s-16-7.175781-16-16v-16h-32v16c0 26.472656 21.527344 48 48 48s48-21.527344 48-48zm0 0"/><path d="m192.078125 223.921875c-27.476563 0-53.949219 9.964844-74.550781 28.054687l-12.023438 10.558594 21.113282 24.039063 12.023437-10.550781c14.765625-12.960938 33.742187-20.101563 53.449219-20.101563 19.710937 0 38.652344 7.109375 53.367187 20.023437l12.023438 10.550782 21.113281-24.039063-12.027344-10.5625c-20.558594-18.039062-47.007812-27.972656-74.488281-27.972656zm0 0"/><path d="m192 0c-105.863281 0-192 86.128906-192 192s86.136719 192 192 192 192-86.128906 192-192-86.136719-192-192-192zm0 352c-88.222656 0-160-71.777344-160-160s71.777344-160 160-160 160 71.777344 160 160-71.777344 160-160 160zm0 0"/></svg>