<svg height="384pt" viewBox="0 0 384 384" width="384pt" xmlns="http://www.w3.org/2000/svg"><path d="m192 0c-105.871094 0-192 86.128906-192 192 0 85.550781 55.335938 159.207031 136 183.527344v.472656l12.304688 2.921875c.007812 0 .023437.007813.03125.007813.023437.007812.039062.007812.054687.015624l15.59375 3.597657.152344-.664063c9.183593 1.359375 18.488281 2.121094 27.863281 2.121094s18.679688-.761719 27.855469-2.113281l.152343.664062 15.59375-3.597656c.023438-.007813.039063-.007813.054688-.015625.007812 0 .023438-.007812.03125-.007812l12.3125-2.929688v-.480469c80.664062-24.3125 136-97.96875 136-183.519531 0-105.871094-86.128906-192-192-192zm24 350.183594c-15.777344 2.410156-32.222656 2.410156-48 0v-86.183594c0-13.230469 10.769531-24 24-24 6.40625 0 12.472656 2.503906 16.945312 6.929688 4.550782 4.597656 7.054688 10.664062 7.054688 17.070312zm32-8.414063v-77.769531c0-14.878906-5.792969-28.9375-16.433594-39.695312-10.628906-10.511719-24.6875-16.304688-39.566406-16.304688-30.878906 0-56 25.121094-56 56v77.769531c-62.097656-22.929687-104-81.816406-104-149.769531 0-88.222656 71.777344-160 160-160s160 71.777344 160 160c0 67.953125-41.902344 126.839844-104 149.769531zm0 0"/><path d="m112 144h32v32h-32zm0 0"/><path d="m240 144h32v32h-32zm0 0"/></svg>